<svg xmlns="http://www.w3.org/2000/svg" width="800" height="800"><path d="m400.313 149.75 2.247-.002c13.336.02 26.283.972 39.44 3.252l2.86.472C468.64 157.497 492.405 165.23 514 176l2.36 1.171C536.772 187.4 554.782 200.02 572 215l2.621 2.277C584.98 226.443 594.486 236.085 603 247l2.39 2.98c6.837 8.6 12.859 17.666 18.61 27.02l1.2 1.948C643.76 309.505 655.376 345.485 659 381l.336 2.887c6.297 63.735-12.689 130.1-52.399 180.425A738.254 738.254 0 0 1 603 569l-2.406 2.96c-5.255 6.42-10.814 12.464-16.657 18.352l-1.986 2.015-1.861 1.849-1.66 1.653C577 597 577 597 575 597v2c-3.444 3.254-7.267 6.086-11 9l-1.753 1.386c-15.219 11.985-31.603 22.47-49.182 30.647-2.207 1.033-4.395 2.102-6.585 3.17C446.474 671.923 374.471 673.098 312 652c-12.44-4.405-24.367-9.785-36-16l-1.982-1.05C253.478 624 234.75 610.15 218 594l-2.096-2.014c-49.411-47.719-76.561-112.356-78.19-180.898C137.248 365.704 149.129 323 170 283l1.48-2.902c8.968-17.107 20.906-32.456 34.11-46.477 2.421-2.57 2.421-2.57 4.504-5.262 1.714-2.122 3.387-3.798 5.469-5.547 3.254-2.77 6.384-5.636 9.5-8.562 6.575-5.986 13.658-11.156 20.937-16.25l1.844-1.297C283.763 171.6 327.26 154.969 371 151l2.777-.259c8.847-.762 17.662-.984 26.536-.991Z" fill="#18455B"/><path d="m360.07 234.596 2.741-.02c2.986-.02 5.972-.015 8.959-.01l6.243-.015c4.362-.01 8.724-.007 13.086.003 5.578.011 11.156-.009 16.735-.038 4.299-.018 8.598-.018 12.897-.012 2.056 0 4.112-.006 6.168-.019 2.881-.015 5.762-.004 8.643.013l2.553-.029c5.651.07 10.393.936 14.905 4.531 4.419 5.445 4.56 11.44 4.454 18.18l.002 2.988c-.003 3.236-.034 6.471-.065 9.707-.008 2.253-.014 4.506-.018 6.759a3602.22 3602.22 0 0 1-.098 17.735c-.041 6.04-.06 12.08-.08 18.12A10139.16 10139.16 0 0 1 457 348l3.964-.027c12.344-.081 24.688-.141 37.032-.18 6.346-.021 12.691-.05 19.037-.095 6.127-.043 12.254-.067 18.382-.078 2.334-.007 4.668-.021 7.003-.043 3.277-.03 6.553-.033 9.83-.031l2.905-.044c6.324.039 11.396 1.185 16.847 4.498 4.891 5.136 5.155 8.804 5.177 15.669l.02 2.72c.02 2.98.031 5.96.041 8.94l.013 3.08c.02 5.382.035 10.764.044 16.146.011 5.56.046 11.12.085 16.679.026 4.274.035 8.548.038 12.822.005 2.049.017 4.098.035 6.148.025 2.87.024 5.74.017 8.61l.039 2.56c-.047 5.355-.981 8.36-4.509 12.626-3.644 3.202-6.701 4.126-11.499 4.12l-2.792.004-3.055-.01h-3.223c-3.523 0-7.045-.009-10.568-.016l-7.318-.005c-6.427-.003-12.853-.013-19.28-.024-6.555-.01-13.11-.015-19.665-.02-12.867-.01-25.733-.028-38.6-.049l.011 1.649c.089 13.263.155 26.526.196 39.79.021 6.414.05 12.828.095 19.242.043 6.192.067 12.384.078 18.577.007 2.36.021 4.72.043 7.08.029 3.31.033 6.62.031 9.932l.044 2.944C457.46 567.317 456.463 571.9 453 577c-4.712 4.426-9.707 4.158-15.858 4.177l-2.746.02c-3.002.02-6.004.031-9.005.041l-3.108.013c-5.429.02-10.857.035-16.286.044-5.603.011-11.206.046-16.81.085-4.311.026-8.623.035-12.935.038-2.065.005-4.13.017-6.195.035-2.894.025-5.787.024-8.681.017l-2.573.039c-5.418-.047-9.699-.76-13.803-4.509-4.456-5.704-4.557-11.754-4.454-18.73l-.002-3.167c.003-3.43.034-6.86.065-10.29.008-2.388.014-4.776.018-7.163.015-6.267.054-12.534.098-18.8.041-6.402.06-12.804.08-19.205.043-12.549.11-25.097.195-37.645l-1.67.008c-13.421.067-26.842.116-40.263.147-6.491.016-12.981.037-19.472.071-6.263.033-12.527.05-18.79.059-2.39.005-4.78.016-7.17.032-3.346.022-6.693.025-10.04.024l-2.995.032c-6.035-.027-10.591-.629-15.245-4.873-4.2-5.394-4.51-9.354-4.532-15.991l-.02-2.628c-.02-2.871-.031-5.743-.041-8.615l-.013-2.974c-.02-5.196-.035-10.39-.044-15.586-.011-5.361-.046-10.722-.085-16.083-.027-4.126-.035-8.253-.038-12.38a855.41 855.41 0 0 0-.035-5.927c-.025-2.77-.024-5.538-.017-8.307l-.039-2.46c.052-5.655 1.131-8.96 4.509-13.549 5.171-4.846 10.162-4.549 16.87-4.454l3.284-.002c3.571.003 7.142.034 10.713.065 2.48.008 4.96.014 7.44.018 6.52.015 13.04.054 19.56.098 6.656.043 13.313.06 19.969.08 13.055.043 26.11.11 39.164.195l-.027-3.946c-.081-12.271-.141-24.542-.18-36.814-.021-6.309-.05-12.618-.095-18.927-.043-6.088-.067-12.176-.078-18.265-.007-2.322-.021-4.645-.043-6.968-.029-3.254-.033-6.506-.031-9.76l-.044-2.91c.035-5.62.584-9.054 4.498-13.41 4.343-3.68 8.642-3.433 14.07-3.404Z" fill="#FCFDFD"/><path d="m400.313 149.75 2.247-.002c13.336.02 26.283.972 39.44 3.252l2.86.472C468.64 157.497 492.405 165.23 514 176l2.36 1.171C536.772 187.4 554.782 200.02 572 215l2.621 2.277C584.98 226.443 594.486 236.085 603 247l2.39 2.98c6.837 8.6 12.859 17.666 18.61 27.02l1.2 1.948C643.76 309.505 655.376 345.485 659 381l.336 2.887c6.297 63.735-12.689 130.1-52.399 180.425A738.254 738.254 0 0 1 603 569l-2.406 2.96c-5.255 6.42-10.814 12.464-16.657 18.352l-1.986 2.015-1.861 1.849-1.66 1.653C577 597 577 597 575 597v2c-3.444 3.254-7.267 6.086-11 9l-1.753 1.386c-15.219 11.985-31.603 22.47-49.182 30.647-2.207 1.033-4.395 2.102-6.585 3.17C446.474 671.923 374.471 673.098 312 652c-12.44-4.405-24.367-9.785-36-16l-1.982-1.05C253.478 624 234.75 610.15 218 594l-2.096-2.014c-49.411-47.719-76.561-112.356-78.19-180.898C137.248 365.704 149.129 323 170 283l1.48-2.902c8.968-17.107 20.906-32.456 34.11-46.477 2.421-2.57 2.421-2.57 4.504-5.262 1.714-2.122 3.387-3.798 5.469-5.547 3.254-2.77 6.384-5.636 9.5-8.562 6.575-5.986 13.658-11.156 20.937-16.25l1.844-1.297C283.763 171.6 327.26 154.969 371 151l2.777-.259c8.847-.762 17.662-.984 26.536-.991ZM310 210l-2.4 1.01c-24.289 10.395-45.566 25.84-64.6 43.99l-2.77 2.574c-7.76 7.428-14.042 15.674-20.23 24.426l-1.356 1.908C199.724 310.734 186.946 342.54 182 375l-.621 3.715C174.982 422.875 183.58 468.955 205 508l2.148 4.035c4.954 9.176 10.568 17.651 16.852 25.965l1.988 2.637C254.864 577.762 295.684 603.742 341 616l3.723 1.02c29.537 7.722 63.317 9.429 93.277 2.98l2.658-.536c44.703-9.044 90.875-30.822 120.654-66.472a101.978 101.978 0 0 1 3.688-4.11c18.965-20.115 31.816-45.034 41-70.882.58-1.57 1.16-3.138 1.742-4.707C619.362 441.136 620.67 405.462 615 372l-.586-3.793c-7.213-41.45-28.172-79.6-57.08-109.81a339.145 339.145 0 0 1-3.38-3.604c-5.498-5.768-11.765-10.569-18.095-15.374a440.694 440.694 0 0 1-5.324-4.146C520.095 227.19 508.728 221.014 497 215l-3.523-1.809c-3.123-1.512-6.265-2.877-9.477-4.191l-2.243-.92c-26.24-10.587-53.483-15.514-81.695-15.393l-2.735.007c-30.621.117-59.055 5.287-87.327 17.306Z" fill="#18455C"/><path d="m398.938 175.75 2.468-.003c12.24.01 24.14.553 36.202 2.809 2.4.445 4.803.834 7.212 1.217C485.48 186.64 526.043 206.676 556 235a611.027 611.027 0 0 0 3.875 3.313c3.671 3.202 7.158 6.578 10.625 10l1.64 1.6c1.327 1.324 2.599 2.701 3.86 4.087v2h2c28.143 29.215 46.575 71.056 53.574 110.597.295 1.665.618 3.326.963 4.982 1.972 10.541 1.8 21.14 1.779 31.83-.003 3.32.02 6.639.045 9.958.037 12.236-.693 23.691-3.361 35.633l-.618 3.077c-6.586 32.65-19.92 63.826-39.382 90.923l-1.186 1.661C582.976 554.146 575.111 562.6 567 571l-2.73 2.855C537.935 600.86 502.02 620.617 466 631l-2.698.815C420.026 644.81 371.022 643.315 328 630l-2.513-.76C304.77 622.864 284.885 613.235 267 601l-1.86-1.257c-6.963-4.73-13.508-9.679-19.663-15.442a239.329 239.329 0 0 0-6.286-5.61C226.567 567.673 215.721 555.63 206 542c-.435-.595-.87-1.19-1.317-1.804-12.548-17.257-21.915-36.847-28.892-56.95a197.829 197.829 0 0 0-2.209-5.898c-6.688-17.966-9.724-38.655-9.75-57.817l-.01-2.664c-.005-1.852-.007-3.704-.007-5.556-.002-2.776-.02-5.551-.04-8.327-.046-14.507 1.06-28.622 3.975-42.859l.513-2.51c7.05-33.039 22.078-66.11 43.698-92.138 1.934-2.349 3.8-4.74 5.668-7.141 4.389-5.49 9.19-10.46 14.184-15.399l2.688-2.666c5.916-5.818 11.802-11.354 18.499-16.271l1.763-1.323c42.467-31.735 91.432-46.881 144.174-46.927ZM310 210l-2.4 1.01c-24.289 10.395-45.566 25.84-64.6 43.99l-2.77 2.574c-7.76 7.428-14.042 15.674-20.23 24.426l-1.356 1.908C199.724 310.734 186.946 342.54 182 375l-.621 3.715C174.982 422.875 183.58 468.955 205 508l2.148 4.035c4.954 9.176 10.568 17.651 16.852 25.965l1.988 2.637C254.864 577.762 295.684 603.742 341 616l3.723 1.02c29.537 7.722 63.317 9.429 93.277 2.98l2.658-.536c44.703-9.044 90.875-30.822 120.654-66.472a101.978 101.978 0 0 1 3.688-4.11c18.965-20.115 31.816-45.034 41-70.882.58-1.57 1.16-3.138 1.742-4.707C619.362 441.136 620.67 405.462 615 372l-.586-3.793c-7.213-41.45-28.172-79.6-57.08-109.81a339.145 339.145 0 0 1-3.38-3.604c-5.498-5.768-11.765-10.569-18.095-15.374a440.694 440.694 0 0 1-5.324-4.146C520.095 227.19 508.728 221.014 497 215l-3.523-1.809c-3.123-1.512-6.265-2.877-9.477-4.191l-2.243-.92c-26.24-10.587-53.483-15.514-81.695-15.393l-2.735.007c-30.621.117-59.055 5.287-87.327 17.306Z" fill="#F9FCFC"/><path d="M399 281c19.542 23.326 18.238 76.64 18 106l3.758.148c6.082.251 12.162.55 18.242.852l3.438.163c68.973 3.4 68.973 3.4 95.562 16.837l-1 2c-3.001.904-5.95 1.675-9 2.375l-2.868.662c-18.05 4.049-36.247 6.306-54.632 8.15l-2.55.257c-14.455 1.44-28.973 2.8-43.512 2.618l-2.225-.013c-1.738-.012-3.475-.03-5.213-.049l.024 2.13c.208 33.029-.698 77.334-17.024 106.87h-2c-3.068-7.116-5.456-14.133-7.125-21.688l-.442-1.987c-3.08-14.59-5.046-29.315-6.558-44.137l-.26-2.488c-1.305-12.553-2.312-25.077-2.615-37.7l-3.95-.113c-31.008-1.025-62.356-3.171-92.8-9.325l-2.923-.585c-6.683-1.422-12.965-3.494-19.327-5.977v-2c14.352-5.61 28.88-8.798 44.063-11.063l2.54-.385C332.745 388.937 357.568 386.8 382 387l-.07-3.785c-.411-32.01.991-72.275 16.07-101.215l1-1Z" fill="#19455A"/><path d="m533 403 5 2-1 2c-3.063.625-3.063.625-6 1v-3h2v-2Z" fill="#385C70"/><path d="m508 616-5 4-3-3c3.067-1.862 4.597-2.215 8-1Z" fill="#284E5F"/></svg>